<?xml version="1.0" encoding="utf-8"?>
<svg viewBox="72.104 -13 48 48" xmlns="http://www.w3.org/2000/svg">
  <path d="M 111.196 7.231 L 111.196 2.231 L 106.196 2.231 L 106.196 -0.769 L 111.196 -0.769 L 111.196 -5.769 L 114.196 -5.769 L 114.196 -0.769 L 119.196 -0.769 L 119.196 2.231 L 114.196 2.231 L 114.196 7.231 Z M 72.104 24.932 L 72.104 22.282 C 72.104 20.982 72.804 19.932 74.204 19.132 C 75.604 18.332 77.404 17.932 79.604 17.932 C 80.037 17.932 80.437 17.94 80.804 17.957 C 81.17 17.973 81.537 18.015 81.904 18.082 C 81.637 18.648 81.437 19.223 81.304 19.807 C 81.17 20.39 81.104 21.015 81.104 21.682 L 81.104 24.932 Z M 84.104 24.932 L 84.104 21.682 C 84.104 19.515 85.212 17.765 87.429 16.432 C 89.645 15.098 92.537 14.432 96.104 14.432 C 99.704 14.432 102.604 15.098 104.804 16.432 C 107.004 17.765 108.104 19.515 108.104 21.682 L 108.104 24.932 Z M 111.104 24.932 L 111.104 21.682 C 111.104 21.015 111.045 20.39 110.929 19.807 C 110.812 19.223 110.62 18.648 110.354 18.082 C 110.72 18.015 111.087 17.973 111.454 17.957 C 111.82 17.94 112.204 17.932 112.604 17.932 C 114.87 17.932 116.687 18.332 118.054 19.132 C 119.42 19.932 120.104 20.982 120.104 22.282 L 120.104 24.932 Z M 96.104 17.432 C 93.437 17.432 91.27 17.832 89.604 18.632 C 87.937 19.432 87.104 20.448 87.104 21.682 L 87.104 21.932 L 105.104 21.932 L 105.104 21.632 C 105.104 20.432 104.279 19.432 102.629 18.632 C 100.979 17.832 98.804 17.432 96.104 17.432 Z M 79.604 16.432 C 78.637 16.432 77.812 16.09 77.129 15.407 C 76.445 14.723 76.104 13.898 76.104 12.932 C 76.104 11.965 76.445 11.14 77.129 10.457 C 77.812 9.773 78.637 9.432 79.604 9.432 C 80.57 9.432 81.395 9.773 82.079 10.457 C 82.762 11.14 83.104 11.965 83.104 12.932 C 83.104 13.898 82.762 14.723 82.079 15.407 C 81.395 16.09 80.57 16.432 79.604 16.432 Z M 112.604 16.432 C 111.637 16.432 110.812 16.09 110.129 15.407 C 109.445 14.723 109.104 13.898 109.104 12.932 C 109.104 11.965 109.445 11.14 110.129 10.457 C 110.812 9.773 111.637 9.432 112.604 9.432 C 113.57 9.432 114.395 9.773 115.079 10.457 C 115.762 11.14 116.104 11.965 116.104 12.932 C 116.104 13.898 115.762 14.723 115.079 15.407 C 114.395 16.09 113.57 16.432 112.604 16.432 Z M 96.104 12.932 C 94.437 12.932 93.02 12.348 91.854 11.182 C 90.687 10.015 90.104 8.598 90.104 6.932 C 90.104 5.232 90.687 3.807 91.854 2.657 C 93.02 1.507 94.437 0.932 96.104 0.932 C 97.804 0.932 99.229 1.507 100.379 2.657 C 101.529 3.807 102.104 5.232 102.104 6.932 C 102.104 8.598 101.529 10.015 100.379 11.182 C 99.229 12.348 97.804 12.932 96.104 12.932 Z M 96.104 3.932 C 95.27 3.932 94.562 4.215 93.979 4.782 C 93.395 5.348 93.104 6.065 93.104 6.932 C 93.104 7.765 93.395 8.473 93.979 9.057 C 94.562 9.64 95.27 9.932 96.104 9.932 C 96.97 9.932 97.687 9.64 98.254 9.057 C 98.82 8.473 99.104 7.765 99.104 6.932 C 99.104 6.065 98.82 5.348 98.254 4.782 C 97.687 4.215 96.97 3.932 96.104 3.932 Z"/>
</svg>